<?xml version="1.0" encoding="UTF-8"?>
<svg width="604px" height="604px" viewBox="0 0 604 604" version="1.1" xmlns="http://www.w3.org/2000/svg" xmlns:xlink="http://www.w3.org/1999/xlink">
    <!-- Generator: Sketch 52.2 (67145) - http://www.bohemiancoding.com/sketch -->
    <title>Scanova Logo_with Background Copy 3</title>
    <desc>Created with Sketch.</desc>
    <g id="Scanova-Logo_with-Background-Copy-3" stroke="none" stroke-width="1" fill="none" fill-rule="evenodd">
        <path d="M302.5,528 C178.512074,528 78,427.040211 78,302.5 C78,177.959789 178.512074,77 302.5,77 C426.487926,77 527,177.959789 527,302.5 C527,427.040211 426.487926,528 302.5,528 Z M207.518214,275.367857 C214.308097,341.171797 266.550654,393.417947 332.166753,399.884285 L332.166753,275.367857 L207.518214,275.367857 Z M207.436746,247.022734 L332.166753,247.022734 L332.166753,121.693694 C266.280785,128.186626 213.878591,180.836718 207.436746,247.022734 Z M484.403067,247.022734 C477.98761,181.107844 425.98758,128.618207 360.482068,121.775808 L360.482068,247.022734 L484.403067,247.022734 Z M484.321598,275.367857 L360.482068,275.367857 L360.482068,399.80217 C425.718165,392.987913 477.559644,340.901127 484.321598,275.367857 Z" id="Combined-Shape-Copy" fill="#C0392B"></path>
    </g>
</svg>