<?xml version="1.0" standalone="no"?>
<!DOCTYPE svg PUBLIC "-//W3C//DTD SVG 20010904//EN"
  "http://www.w3.org/TR/2001/REC-SVG-20010904/DTD/svg10.dtd">
<svg height="467.000000pt" preserveAspectRatio="xMidYMid meet"
     version="1.0" viewBox="0 0 447.000000 467.000000" width="447.000000pt"
     xmlns="http://www.w3.org/2000/svg">

  <g fill="#6206a8"
     stroke="none" transform="translate(0.000000,467.000000) scale(0.100000,-0.100000)">
    <path d="M2090 4358 c-19 -21 -20 -34 -20 -343 0 -294 2 -323 18 -337 47 -42
106 -27 123 31 6 23 9 145 7 334 l-3 299 -24 19 c-31 25 -75 24 -101 -3z"/>
    <path d="M3295 3871 c-16 -10 -121 -111 -232 -223 -189 -190 -203 -207 -203
-240 0 -46 40 -83 80 -73 31 8 437 408 455 449 16 38 3 79 -31 95 -32 14 -34
14 -69 -8z"/>
    <path d="M900 3860 c-12 -12 -20 -33 -20 -52 0 -28 24 -56 208 -241 114 -115
220 -215 236 -224 16 -8 39 -12 52 -9 29 8 56 58 49 89 -4 13 -104 121 -224
241 -192 191 -221 216 -249 216 -19 0 -40 -8 -52 -20z"/>
    <path d="M2008 3390 c-264 -48 -493 -232 -593 -478 -56 -138 -56 -130 -53
-1212 l3 -995 23 -57 c105 -260 438 -426 810 -405 386 22 682 229 722 502 13
96 13 1800 0 1935 -22 207 -91 353 -234 495 -99 99 -190 154 -321 195 -78 25
-273 36 -357 20z m286 -160 c233 -59 424 -252 471 -476 12 -58 15 -227 15
-1025 0 -1066 4 -1009 -69 -1105 -69 -92 -184 -162 -336 -206 -113 -32 -342
-32 -459 0 -170 47 -321 151 -376 259 l-25 48 -3 977 c-3 1085 -4 1057 63
1192 66 133 164 230 300 296 44 21 103 43 130 48 87 17 206 13 289 -8z"/>
    <path d="M2015 3022 c-160 -53 -276 -179 -305 -331 -13 -70 -13 -395 0 -443
27 -95 131 -192 250 -232 71 -24 213 -32 293 -16 132 25 263 113 306 205 19
41 21 63 21 258 0 188 -2 221 -20 272 -51 148 -152 246 -299 291 -61 18 -184
16 -246 -4z m245 -153 c60 -27 117 -83 146 -144 23 -47 24 -61 24 -245 0 -177
-2 -198 -20 -228 -68 -112 -297 -148 -449 -70 -107 54 -111 65 -111 284 0 157
3 191 19 234 63 166 232 239 391 169z"/>
    <path d="M1755 1210 c-47 -18 -61 -69 -33 -112 30 -45 254 -98 413 -98 163 0
380 49 423 96 36 40 26 85 -25 112 -17 10 -34 8 -85 -8 -90 -29 -219 -50 -303
-50 -79 0 -218 21 -280 43 -63 22 -88 26 -110 17z"/>
    <path d="M1887 840 c-34 -27 -36 -72 -4 -104 42 -42 245 -57 417 -32 75 12 98
19 112 36 25 31 22 67 -7 96 -24 24 -29 25 -93 17 -86 -10 -249 -10 -332 0
-59 8 -68 7 -93 -13z"/>
    <path d="M402 2670 c-27 -26 -28 -70 -3 -101 l19 -24 299 -3 c189 -2 311 1
334 7 58 17 73 76 31 124 -14 15 -43 17 -337 17 -309 0 -322 -1 -343 -20z"/>
    <path d="M3202 2674 c-30 -21 -31 -83 -1 -110 20 -18 40 -19 339 -19 299 0
319 1 339 19 25 23 28 72 5 104 -15 22 -16 22 -337 22 -276 0 -326 -2 -345
-16z"/>
  </g>
</svg>
