<svg width="208" height="212" viewBox="0 0 208 212" fill="none" xmlns="http://www.w3.org/2000/svg">
<g clip-path="url(#clip0_43_78)">
<path d="M47.7903 113.349C52.2549 112.359 54.6399 105.98 53.1132 99.0972C51.5947 92.2063 46.734 87.4281 42.2693 88.4102C37.8047 89.4005 35.4197 95.7797 36.9464 102.671C38.4649 109.553 43.3174 114.34 47.782 113.349H47.7903Z" fill="#E074FF"/>
<path d="M207.214 73.0427L193.828 31.0619C189.487 17.4369 177.785 7.84737 153.399 14.7878C131.48 1.12977 93.8317 -4.20965 67.0851 3.6468C17.2973 18.2621 -10.027 65.797 3.40821 115.915C15.9439 162.682 59.4432 169.647 59.4432 211.405H157.377C157.377 211.405 160.57 188.975 176.077 180.483C194.29 170.514 197.476 166.165 196.518 160.47C194.711 149.759 189.025 147.968 187.325 142.455C186.475 139.691 187.036 136.208 187.111 133.757C187.325 126.577 182.761 127.229 182.761 127.229C182.761 127.229 185.592 125.711 185.369 121.791C185.295 120.396 183.661 118.234 182.86 116.905C180.624 113.249 179.716 110.039 179.716 110.039C193.977 105.236 211.786 87.3692 207.214 73.0345V73.0427ZM42.5667 77.887C50.5964 76.1127 59.3359 84.7201 62.0758 97.1155C64.8156 109.511 60.5243 120.998 52.4863 122.781C44.4483 124.555 35.717 115.948 32.9772 103.552C30.2373 91.1571 34.5287 79.6613 42.5584 77.887H42.5667ZM176.894 106.136C189.289 96.9999 188.423 90.695 181.68 85.4711C163.558 86.9978 152.103 100.045 115.123 117.004C66.4744 139.327 53.3858 140.673 38.1268 130.926C29.28 125.273 24.9309 111.062 23.7756 100.045C26.0945 110.196 31.6898 120.545 38.1268 125.711C47.9144 133.551 65.8224 141.803 152.532 87.8643C187.878 65.8795 202.989 75.0316 201.685 81.9885C200.381 88.9454 191.031 99.3849 176.894 106.127V106.136Z" fill="url(#paint0_linear_43_78)"/>
<path d="M122.953 144.883C139.314 179.232 163.757 169.845 177.101 161.695C143.964 186.091 133.487 168.934 118.375 147.217C103.263 125.501 91.5982 49.3113 78.5035 46.3967C68.0277 44.065 67.3342 56.9715 68.2968 63.7163C64.7554 51.8686 60.4304 28.1516 71.4627 28.0645C85.253 27.9556 92.2934 46.2883 101.777 82.9899C109.364 112.351 119.056 136.486 122.953 144.883Z" fill="white"/>
</g>
<defs>
<linearGradient id="paint0_linear_43_78" x1="182.836" y1="12.3945" x2="31.467" y2="189.866" gradientUnits="userSpaceOnUse">
<stop stop-color="#EB6EFF"/>
<stop offset="1" stop-color="#273F94"/>
</linearGradient>
<clipPath id="clip0_43_78">
<rect width="207.948" height="211.406" fill="white"/>
</clipPath>
</defs>
</svg>
