<svg width="866" height="768" viewBox="0 0 866 768" fill="none" xmlns="http://www.w3.org/2000/svg">
<g clip-path="url(#clip0_649_64)">
<path d="M382.092 722.312C370.499 742.372 384.976 767.458 408.145 767.458L510.633 767.458C521.379 767.458 531.309 761.727 536.686 752.424L613.98 618.676L699.962 469.864L639.987 366.797C628.383 346.856 599.577 346.856 587.972 366.797L536.7 454.907C531.312 464.167 521.406 469.864 510.693 469.864L184.037 469.864L270.02 618.676L389.842 618.676C413.011 618.676 427.487 643.762 415.894 663.822L382.092 722.312Z" fill="#FF6655"/>
<path d="M712.004 445.806L798.016 297.024L738.105 193.392C726.508 173.332 740.985 148.242 764.156 148.242L831.856 148.242C855.025 148.242 869.501 123.156 857.908 103.096L806.705 14.4938C801.328 5.19005 791.398 -0.540302 780.652 -0.540301L454.026 -0.540287L394.789 103.235C383.338 123.294 397.823 148.242 420.921 148.242L522.675 148.242C533.42 148.242 543.35 153.972 548.727 163.276L712.004 445.806Z" fill="#A65FFF"/>
<path d="M171.995 445.806L292.551 445.806C315.791 445.806 330.258 420.581 318.523 400.522L266.812 312.125C261.35 302.789 261.32 291.24 266.732 281.876L429.943 -0.540302L257.978 -0.540294L198.043 103.169C186.46 123.213 157.527 123.215 145.94 103.173L112.037 44.5284C100.451 24.4864 71.518 24.4886 59.9346 44.5324L8.70099 133.186C3.3175 142.501 3.3175 153.982 8.70099 163.298L85.9825 297.024L171.995 445.806Z" fill="#20BEFF"/>
</g>
<defs>
<clipPath id="clip0_649_64">
<rect width="768" height="866" fill="white" transform="matrix(4.37114e-08 1 1 -4.37114e-08 0 6.10352e-05)"/>
</clipPath>
</defs>
</svg>
